<?xml version="1.0" encoding="UTF-8" standalone="no"?>
<svg
   enable-background="new 0 0 24 24"
   height="24px"
   viewBox="0 0 24 24"
   width="24px"
   fill="#000000"
   version="1.1"
   id="svg22"
   sodipodi:docname="app_icon.svg"
   inkscape:version="1.1 (c68e22c387, 2021-05-23)"
   xmlns:inkscape="http://www.inkscape.org/namespaces/inkscape"
   xmlns:sodipodi="http://sodipodi.sourceforge.net/DTD/sodipodi-0.dtd"
   xmlns="http://www.w3.org/2000/svg"
   xmlns:svg="http://www.w3.org/2000/svg">
  <sodipodi:namedview
     id="namedview16"
     pagecolor="#505050"
     bordercolor="#eeeeee"
     borderopacity="1"
     inkscape:pageshadow="0"
     inkscape:pageopacity="0"
     inkscape:pagecheckerboard="0"
     showgrid="false"
     inkscape:zoom="24.277333"
     inkscape:cx="-2.100725"
     inkscape:cy="12.583755"
     inkscape:window-width="2560"
     inkscape:window-height="1009"
     inkscape:window-x="-8"
     inkscape:window-y="-8"
     inkscape:window-maximized="1"
     inkscape:current-layer="svg22" />
  <defs
     id="defs26">
    <inkscape:path-effect
       effect="fillet_chamfer"
       id="path-effect1195"
       is_visible="true"
       lpeversion="1"
       satellites_param="F,0,0,1,0,4,0,1 @ F,0,0,1,0,4,0,1 @ F,0,0,1,0,4,0,1 @ F,0,0,1,0,4,0,1"
       unit="px"
       method="auto"
       mode="F"
       radius="4"
       chamfer_steps="1"
       flexible="false"
       use_knot_distance="true"
       apply_no_radius="true"
       apply_with_radius="true"
       only_selected="false"
       hide_knots="false" />
  </defs>
  <path
     style="fill:#ffffff;fill-opacity:1;stroke:none;stroke-width:0.16;stroke-miterlimit:10"
     id="rect855"
     width="24"
     height="24"
     x="0"
     y="0"
     inkscape:path-effect="#path-effect1195"
     d="m 4,0 h 16 a 4,4 45 0 1 4,4 v 16 a 4,4 135 0 1 -4,4 H 4 A 4,4 45 0 1 0,20 V 4 A 4,4 135 0 1 4,0 Z"
     sodipodi:type="rect" />
  <g
     id="g4">
    <rect
       fill="none"
       height="24"
       width="24"
       id="rect2" />
  </g>
  <g
     id="g20"
     transform="matrix(0.61176471,0,0,0.61176471,4.6588235,4.0470588)">
    <g
       id="g6" />
    <g
       id="g18">
      <path
         d="M 21,5 C 19.89,4.65 18.67,4.5 17.5,4.5 15.55,4.5 13.45,4.9 12,6 10.55,4.9 8.45,4.5 6.5,4.5 4.55,4.5 2.45,4.9 1,6 v 14.65 c 0,0.25 0.25,0.5 0.5,0.5 0.1,0 0.15,-0.05 0.25,-0.05 C 3.1,20.45 5.05,20 6.5,20 c 1.95,0 4.05,0.4 5.5,1.5 1.35,-0.85 3.8,-1.5 5.5,-1.5 1.65,0 3.35,0.3 4.75,1.05 0.1,0.05 0.15,0.05 0.25,0.05 0.25,0 0.5,-0.25 0.5,-0.5 V 6 C 22.4,5.55 21.75,5.25 21,5 Z m 0,13.5 C 19.9,18.15 18.7,18 17.5,18 15.8,18 13.35,18.65 12,19.5 V 8 c 1.35,-0.85 3.8,-1.5 5.5,-1.5 1.2,0 2.4,0.15 3.5,0.5 z"
         id="path8" />
      <g
         id="g16">
        <path
           d="m 17.5,10.5 c 0.88,0 1.73,0.09 2.5,0.26 V 9.24 C 19.21,9.09 18.36,9 17.5,9 15.8,9 14.26,9.29 13,9.83 v 1.66 c 1.13,-0.64 2.7,-0.99 4.5,-0.99 z"
           id="path10" />
        <path
           d="m 13,12.49 v 1.66 c 1.13,-0.64 2.7,-0.99 4.5,-0.99 0.88,0 1.73,0.09 2.5,0.26 V 11.9 c -0.79,-0.15 -1.64,-0.24 -2.5,-0.24 -1.7,0 -3.24,0.3 -4.5,0.83 z"
           id="path12" />
        <path
           d="m 17.5,14.33 c -1.7,0 -3.24,0.29 -4.5,0.83 v 1.66 c 1.13,-0.64 2.7,-0.99 4.5,-0.99 0.88,0 1.73,0.09 2.5,0.26 v -1.52 c -0.79,-0.16 -1.64,-0.24 -2.5,-0.24 z"
           id="path14" />
      </g>
    </g>
  </g>
  <path
     style="fill:#000000;stroke-width:0.577777"
     d="m 4.5151512,6.8 c -0.2311111,0 -0.416,0.1848888 -0.416,0.416 V 9.111111 H 3.6138178 V 7.2160001 c 0,-0.2311112 -0.1848888,-0.416 -0.4159999,-0.416 -0.2311112,0 -0.416,0.1848888 -0.416,0.416 V 9.111111 H 2.2964848 V 7.2160001 c 0,-0.2311112 -0.1848889,-0.416 -0.4160001,-0.416 -0.2311112,0 -0.4160001,0.1848888 -0.4160001,0.416 v 3.0506669 c 0,0.635555 0.5200004,1.155555 1.1555555,1.155555 V 17.2 h 1.1555555 v -5.777778 c 0.6355556,0 1.1555556,-0.52 1.1555556,-1.155555 V 7.2160001 c 0,-0.2311112 -0.1848889,-0.416 -0.416,-0.4160001 z"
     id="path2272" />
  <path
     style="fill:#000000;stroke-width:0.577777"
     d="M 21.942656,6.7999999 V 17.2 H 20.7871 V 12.577777 H 19.631544 V 9.1111109 c 0,-1.0168888 0.716445,-2.311111 2.311112,-2.311111 z"
     id="path2270" />
</svg>
